# AST/ASF file generated using VICON BodyLanguage
# -----------------------------------------------
:version 1.10
:name VICON
:units
  mass 1.0
  length 0.45
  angle deg
:documentation
   .ast/.asf automatically generated from VICON data using
   VICON BodyBuilder and BodyLanguage model FoxedUp or BRILLIANT.MOD
:root
   order TX TY TZ RX RY RZ
   axis XYZ
   position 0 0 0  
   orientation 0 0 0 
:bonedata
  begin
     id 1 
     name lhipjoint
     direction 0.63403 -0.759788 0.143974 
     length 2.51904 
     axis 0 0 0  XYZ
  end
  begin
     id 2 
     name lfemur
     direction 0.34202 -0.939693 0  
     length 7.42313  
     axis 0 0 20  XYZ
    dof rx ry rz
    limits (-160.0 20.0)
           (-70.0 70.0)
           (-60.0 70.0)
  end
  begin
     id 3 
     name ltibia
     direction 0.34202 -0.939693 0   
     length 8.10141   
     axis 0 0 20   XYZ
    dof rx
    limits (-10.0 170.0)
  end
  begin
     id 4 
     name lfoot
     direction 0.0927455 -0.254816 0.962532   
     length 2.14078   
     axis -90 7.62852e-016 20   XYZ
    dof rx rz
    limits (-45.0 90.0)
           (-70.0 20.0)
  end
  begin
     id 5 
     name ltoes
     direction 1.53556e-011 -4.21949e-011 1   
     length 1.07182   
     axis -90 7.62852e-016 20   XYZ
    dof rx
    limits (-90.0 20.0)
  end
  begin
     id 6 
     name rhipjoint
     direction -0.659892 -0.738223 0.139888   
     length 2.59263  
     axis 0 0 0  XYZ 
  end
  begin
     id 7 
     name rfemur
     direction -0.34202 -0.939693 0   
     length 7.58575   
     axis 0 0 -20   XYZ
    dof rx ry rz
    limits (-160.0 20.0)
           (-70.0 70.0)
           (-70.0 60.0)
  end
  begin
     id 8 
     name rtibia
     direction -0.34202 -0.939693 0   
     length 8.19358   
     axis 0 0 -20   XYZ
    dof rx
    limits (-10.0 170.0)
 end
 begin
     id 9 
     name rfoot
     direction -0.0856543 -0.235333 0.968133   
     length 2.13415  
     axis -90 -7.62852e-016 -20   XYZ
    dof rx rz
    limits (-45.0 90.0)
           (-20.0 70.0)
  end
  begin
     id 10 
     name rtoes
     direction -1.53551e-011 -4.21811e-011 1   
     length 1.07055   
     axis -90 -7.62852e-016 -20   XYZ
    dof rx
    limits (-90.0 20.0)
  end
  begin
     id 11 
     name lowerback
     direction 0.025219 0.998394 -0.0507326   
     length 1.91844   
     axis 0 0 0   XYZ
    dof rx ry rz
    limits (-20.0 45.0)
           (-30.0 30.0)
           (-30.0 30.0)
  end
  begin
     id 12 
     name upperback
     direction 0.0213103 0.99967 -0.0143101   
     length 1.92246   
     axis 0 0 0   XYZ
    dof rx ry rz
    limits (-20.0 45.0)
           (-30.0 30.0)
           (-30.0 30.0)
  end
  begin
     id 13 
     name thorax
     direction 0.00920974 0.99991 0.00971518   
     length 1.92239   
     axis 0 0 0   XYZ
    dof rx ry rz
    limits (-20.0 45.0)
           (-30.0 30.0)
           (-30.0 30.0)
  end
  begin
     id 14 
     name lowerneck
     direction 0.0598257 0.997249 0.0437612   
     length 3.13679   
     axis 0 0 0   XYZ
    dof rx ry rz
    limits (-20.0 45.0)
           (-30.0 30.0)
           (-30.0 30.0)
  end
  begin
     id 15 
     name upperneck
     direction -0.035342 0.999338 0.00863891   
     length 3.16283   
     axis 0 0 0   XYZ
    dof rx ry rz
    limits (-20.0 45.0)
           (-30.0 30.0)
           (-30.0 30.0)
  end
  begin
     id 16
     name head
     direction 0.37144 0.811566 0.450991  
     length 1.2838  
     axis 0 0 0   XYZ
    dof rx ry rz
    limits (-20.0 45.0)
           (-30.0 30.0)
           (-30.0 30.0)
  end
  begin
     id 17 
     name lclavicle
     direction 0.961094 0.274654 -0.0293862  
     length 3.63466  
     axis 0 0 0   XYZ
    dof ry rz
    limits (-20.0 10.0)
           (0.0 20.0)
  end
  begin
     id 18 
     name lhumerus
     direction 1 -4.48963e-011 1.10303e-027   
     length 5.12842   
     axis 180 -30 -90   XYZ
    dof rx ry rz
    limits (-60.0 90.0)
           (-90.0 90.0)
           (-90.0 90.0)
  end
  begin
     id 19
     name lradius
     direction 1 -4.48968e-011 4.13199e-027   
     length 3.47396   
     axis 180 -30 -90   XYZ
    dof rx
    limits (-10.0 170.0)
  end
  begin
     id 20
     name lwrist
     direction 1 -4.48948e-011 9.12708e-027   
     length 1.73698   
     axis -6.84618e-015 90 90   XYZ
    dof ry
    limits (-180.0 0.0)
 end
  begin
     id 21 
     name lhand
     direction 1 -4.49057e-011 1.82749e-026   
     length 0.728607   
     axis -1.16502e-014 90 90   XYZ
    dof rx rz
    limits (-90.0 90.0)
           (-45.0 45.0)
  end
  begin
     id 22 
     name lfingers
     direction 1 -4.48912e-011 3.64949e-026   
     length 0.587422   
     axis -2.33008e-014 90 90   XYZ
    dof rx
    limits (0.0 90.0)
  end
  begin
     id 23
     name lthumb
     direction 0.707107 -6.34995e-011 0.707107   
     length 0.843424   
     axis -90 45 5.69224e-014   XYZ
    dof rx rz
    limits (-45.0 45.0)
           (-45.0 45.0)
  end
  begin
     id 24 
     name rclavicle
     direction -0.90514 0.421881 -0.0523369   
     length 3.57139  
     axis 0 0 0   XYZ 
    dof ry rz
    limits (-10.0 20.0)
           (-20.0 0.0)
  end
  begin
     id 25 
     name rhumerus
     direction -1 -4.48954e-011 -1.76662e-027  
     length 5.48477   
     axis 180 30 90   XYZ
    dof rx ry rz
    limits (-90.0 60.0)
           (-90.0 90.0)
           (-90.0 90.0)
  end
  begin
     id 26 
     name rradius
     direction -1 -4.48982e-011 1.26841e-027   
     length 3.47856   
     axis 180 30 90   XYZ
    dof rx
    limits (-10.0 170.0)
  end
  begin
     id 27 
     name rwrist
     direction -1 -4.49037e-011 9.13554e-027   
     length 1.73928   
     axis -6.84618e-015 -90 -90   XYZ
    dof ry
    limits (-180.0 0.0)
  end
  begin
     id 28
     name rhand
     direction -1 -4.48871e-011 1.82397e-026   
     length 0.709974   
     axis -1.16502e-014 -90 -90   XYZ
    dof rx rz
    limits (-90.0 90.0)
           (-45.0 45.0)
  end
  begin
     id 29
     name rfingers
     direction -1 -4.48994e-011 3.65258e-026   
     length 0.572399   
     axis -2.33008e-014 -90 -90   XYZ
    dof rx
    limits (0.0 90.0)
  end
  begin
     id 30
     name rthumb
     direction -0.707107 -6.34861e-011 0.707107   
     length 0.821855   
     axis -90 -45 -5.69224e-014   XYZ
    dof rx rz
    limits (-45.0 45.0)
           (-45.0 45.0)
  end
:hierarchy
  begin
    root lhipjoint rhipjoint lowerback
    lhipjoint lfemur
    lfemur ltibia
    ltibia lfoot
    lfoot ltoes
    rhipjoint rfemur
    rfemur rtibia
    rtibia rfoot
    rfoot rtoes
    lowerback upperback
    upperback thorax
    thorax lowerneck lclavicle rclavicle
    lowerneck upperneck
    upperneck head
    lclavicle lhumerus
    lhumerus lradius
    lradius lwrist
    lwrist lhand lthumb
    lhand lfingers
    rclavicle rhumerus
    rhumerus rradius
    rradius rwrist
    rwrist rhand rthumb
    rhand rfingers
  end

#!OML:ASF F:\VICON\USERDATA\INSTALL\Justin1\Justin1.ASF
:FULLY-SPECIFIED
:DEGREES
275
root -0.247838 18.2285 8.7446 3.00413 -3.48144 -1.3825
lowerback 5.90317 0.94268 1.14724
upperback 0.24914 1.38837 1.77207
thorax -3.06998 0.685945 1.06468
lowerneck -15.6531 -1.41579 -3.85178
upperneck 19.6117 -0.116811 -3.88452
head 8.73851 -0.760064 -0.692158
rclavicle 4.57205e-015 -6.75868e-015
rhumerus -28.8132 -14.5194 -77.5982
rradius 26.8699
rwrist -1.18031
rhand -23.9196 16.1643
rfingers 7.12502
rthumb 2.55501 -13.8002
lclavicle 4.57205e-015 -6.75868e-015
lhumerus -34.7198 18.5095 82.8506
lradius 28.7775
lwrist -12.1545
lhand -9.4115 31.317
lfingers 7.12502
lthumb 16.5503 60.6312
rfemur -14.3997 0.787324 24.3722
rtibia 59.8865
rfoot 5.316 -6.13042
rtoes 29.5512
lfemur -23.5475 -5.42836 -18.5808
ltibia 26.6293
lfoot -4.95383 1.62347
ltoes 2.5793
276
root -0.232698 18.2335 8.84228 2.95873 -3.58166 -1.07759
lowerback 5.95685 0.902185 0.850753
upperback 0.327459 1.31106 1.68157
thorax -3.02279 0.651078 1.14399
lowerneck -15.8033 -1.3513 -3.80683
upperneck 19.5696 -0.0363436 -3.86576
head 8.75112 -0.717532 -0.684383
rclavicle -2.38542e-015 3.57812e-015
rhumerus -28.7664 -14.8474 -77.5821
rradius 26.8644
rwrist -0.732964
rhand -23.7169 16.1862
rfingers 7.12502
rthumb 2.75077 -13.7758
lclavicle -2.38542e-015 3.57812e-015
lhumerus -34.5216 17.985 83.0211
lradius 28.9689
lwrist -11.9958
lhand -9.24819 31.2189
lfingers 7.12502
lthumb 16.7075 60.5199
rfemur -15.466 0.173265 23.9139
rtibia 61.6276
rfoot 5.51817 -7.26893
rtoes 28.1919
lfemur -23.1983 -5.30331 -19.0663
ltibia 26.7347
lfoot -5.31003 1.69905
ltoes 1.63245
277
root -0.216555 18.2365 8.94051 2.9192 -3.58339 -0.824805
lowerback 5.90455 0.829922 0.628608
upperback 0.449961 1.19438 1.60792
thorax -2.86828 0.59548 1.2042
lowerneck -15.8142 -1.28652 -3.7286
upperneck 19.3635 0.0310986 -3.89576
head 8.68231 -0.678251 -0.69735
rclavicle 1.3418e-014 -3.97569e-016
rhumerus -28.6319 -14.9677 -77.6682
rradius 26.8853
rwrist -0.629403
rhand -23.8991 16.0437
rfingers 7.12502
rthumb 2.57484 -13.9205
lclavicle 1.3418e-014 -3.97569e-016
lhumerus -34.287 17.4468 83.2177
lradius 29.16
lwrist -11.8043
lhand -9.35885 31.2356
lfingers 7.12502
lthumb 16.601 60.5456
rfemur -16.447 -0.600429 23.5486
rtibia 63.2526
rfoot 5.15462 -8.56676
rtoes 27.4164
lfemur -22.8913 -5.14314 -19.5167
ltibia 26.9181
lfoot -5.68348 1.52117
ltoes 0.970251
278
root -0.201658 18.2386 9.03444 2.94419 -3.58137 -0.783693
lowerback 5.93846 0.742027 0.570808
upperback 0.474143 1.07413 1.6263
thorax -2.86168 0.53639 1.26533
lowerneck -15.7989 -1.21238 -3.68802
upperneck 19.2106 0.12704 -3.94998
head 8.62768 -0.632044 -0.709267
rclavicle 6.31141e-015 7.15625e-015
rhumerus -28.6344 -14.9001 -77.7337
rradius 27.0206
rwrist -0.565166
rhand -24.0267 15.6001
rfingers 7.12502
rthumb 2.45157 -14.3656
lclavicle 6.31141e-015 7.15625e-015
lhumerus -34.1979 16.9664 83.3991
lradius 29.3994
lwrist -11.5232
lhand -9.40737 31.3232
lfingers 7.12502
lthumb 16.5543 60.6371
rfemur -17.5013 -1.37193 23.4429
rtibia 64.7646
rfoot 4.5157 -10.0108
rtoes 27.3599
lfemur -22.7035 -5.01989 -19.7012
ltibia 27.161
lfoot -6.07864 1.28549
ltoes 0.956954
279
root -0.189838 18.2386 9.11874 3.0066 -3.69217 -0.954329
lowerback 6.10753 0.72287 0.694233
upperback 0.45895 1.06263 1.71387
thorax -2.97134 0.529544 1.28524
lowerneck -15.8056 -1.20745 -3.73382
upperneck 19.0785 0.142926 -3.96558
head 8.58438 -0.626376 -0.703939
rclavicle 3.08116e-015 1.19271e-015
rhumerus -28.5885 -15.1921 -77.6497
rradius 26.9879
rwrist -0.291264
rhand -23.9117 15.4828
rfingers 7.12502
rthumb 2.56267 -14.4815
lclavicle 3.08116e-015 1.19271e-015
lhumerus -33.9971 16.4848 83.6058
lradius 29.5422
lwrist -11.4418
lhand -9.08847 31.5625
lfingers 7.12502
lthumb 16.8613 60.8505
rfemur -18.6442 -1.94423 23.6105
rtibia 66.1505
rfoot 3.50976 -11.6261
rtoes 28.6679
lfemur -22.5948 -4.95488 -19.5936
ltibia 27.4048
lfoot -6.44846 1.45602
ltoes 1.10652
280
root -0.178267 18.2383 9.20123 3.05052 -3.76355 -0.904792
lowerback 6.28758 0.704423 0.639063
upperback 0.451499 1.03714 1.70375
thorax -3.08022 0.517456 1.30593
lowerneck -15.7277 -1.21235 -3.66144
upperneck 18.867 0.111162 -4.00155
head 8.49796 -0.633662 -0.729136
rclavicle -1.21756e-014 -2.8625e-014
rhumerus -28.441 -15.4388 -77.7051
rradius 26.821
rwrist -0.559657
rhand -24.1813 15.6264
rfingers 7.12502
rthumb 2.30224 -14.3409
lclavicle -1.21756e-014 -2.8625e-014
lhumerus -33.7269 15.9211 83.7653
lradius 29.5235
lwrist -11.4509
lhand -9.04153 31.5124
lfingers 7.12502
lthumb 16.9065 60.7965
rfemur -19.7553 -2.5655 23.5367
rtibia 67.3906
rfoot 2.32835 -13.1352
rtoes 31.6543
lfemur -22.4628 -4.97801 -19.724
ltibia 27.6435
lfoot -6.80365 1.81915
ltoes 1.42405
281
root -0.167556 18.2425 9.2922 3.01187 -3.78709 -0.653037
lowerback 6.39076 0.652498 0.396283
upperback 0.491275 0.949652 1.64269
thorax -3.09815 0.476732 1.38623
lowerneck -15.7316 -1.17897 -3.59086
upperneck 18.7743 0.137926 -4.01435
head 8.46686 -0.61509 -0.74103
rclavicle -1.09332e-015 -2.14687e-014
rhumerus -28.3774 -15.3258 -77.8741
rradius 26.8672
rwrist -1.1074
rhand -24.6644 15.5876
rfingers 7.12502
rthumb 1.83569 -14.3842
lclavicle -1.09332e-015 -2.14687e-014
lhumerus -33.5319 15.3997 83.8976
lradius 29.6041
lwrist -11.3896
lhand -9.26682 31.377
lfingers 7.12502
lthumb 16.6896 60.6796
rfemur -20.6956 -3.24594 23.2272
rtibia 68.4541
rfoot 1.57207 -14.2792
rtoes 34.0461
lfemur -22.1954 -5.08368 -20.093
ltibia 27.8896
lfoot -7.18619 2.13101
ltoes 1.21838
